<?xml version="1.0" encoding="UTF-8" standalone="no"?>
<svg
   width="24"
   height="24"
   fill="currentColor"
   viewBox="0 0 24 24"
   version="1.1"
   id="svg1"
   sodipodi:docname="logo.svg"
   inkscape:version="1.3 (0e150ed6c4, 2023-07-21)"
   xmlns:inkscape="http://www.inkscape.org/namespaces/inkscape"
   xmlns:sodipodi="http://sodipodi.sourceforge.net/DTD/sodipodi-0.dtd"
   xmlns:xlink="http://www.w3.org/1999/xlink"
   xmlns="http://www.w3.org/2000/svg"
   xmlns:svg="http://www.w3.org/2000/svg">
  <defs
     id="defs1">
    <linearGradient
       id="linearGradient10"
       inkscape:collect="always">
      <stop
         style="stop-color:#ffffff;stop-opacity:1;"
         offset="0"
         id="stop9" />
      <stop
         style="stop-color:#6a68b8;stop-opacity:1;"
         offset="1"
         id="stop10" />
    </linearGradient>
    <linearGradient
       id="linearGradient5"
       inkscape:collect="always">
      <stop
         style="stop-color:#ffffff;stop-opacity:1;"
         offset="0"
         id="stop5" />
      <stop
         style="stop-color:#b8687c;stop-opacity:1;"
         offset="1"
         id="stop6" />
    </linearGradient>
    <linearGradient
       id="linearGradient3"
       inkscape:collect="always">
      <stop
         style="stop-color:#3278be;stop-opacity:1;"
         offset="0"
         id="stop3" />
      <stop
         style="stop-color:#17232d;stop-opacity:1;"
         offset="1"
         id="stop4" />
    </linearGradient>
    <linearGradient
       inkscape:collect="always"
       xlink:href="#linearGradient3"
       id="linearGradient4"
       x1="11.021547"
       y1="2.155952"
       x2="10.799907"
       y2="11.484976"
       gradientUnits="userSpaceOnUse"
       gradientTransform="matrix(1.4951024,0,0,1.7364497,0.0569902,-2.6691866)" />
    <linearGradient
       inkscape:collect="always"
       xlink:href="#linearGradient5"
       id="linearGradient6"
       x1="5.9380927"
       y1="14.247692"
       x2="5.8339157"
       y2="9.3841467"
       gradientUnits="userSpaceOnUse"
       gradientTransform="matrix(2.2101546,0,0,2.2101549,-4.3138369,-8.9297554)" />
    <filter
       inkscape:collect="always"
       style="color-interpolation-filters:sRGB"
       id="filter8"
       x="-0.10675455"
       y="-0.25026185"
       width="1.2135091"
       height="1.5005237">
      <feGaussianBlur
         inkscape:collect="always"
         stdDeviation="0.36789937"
         id="feGaussianBlur8" />
    </filter>
    <linearGradient
       inkscape:collect="always"
       xlink:href="#linearGradient10"
       id="linearGradient8"
       gradientUnits="userSpaceOnUse"
       gradientTransform="translate(-0.02604427,0.03117657)"
       x1="5.9380927"
       y1="14.247692"
       x2="5.8339157"
       y2="9.3841467" />
  </defs>
  <sodipodi:namedview
     id="namedview1"
     pagecolor="#505050"
     bordercolor="#ffffff"
     borderopacity="1"
     inkscape:showpageshadow="0"
     inkscape:pageopacity="0"
     inkscape:pagecheckerboard="1"
     inkscape:deskcolor="#d1d1d1"
     inkscape:zoom="35.09375"
     inkscape:cx="12.081923"
     inkscape:cy="9.5601069"
     inkscape:window-width="2560"
     inkscape:window-height="1348"
     inkscape:window-x="1920"
     inkscape:window-y="0"
     inkscape:window-maximized="1"
     inkscape:current-layer="svg1" />
  <path
     d="m 7.5713749,23.37756 c 9.0274281,0 13.9657521,-8.687458 13.9657521,-16.2080224 0,-0.243103 0,-0.4896788 -0.009,-0.7327818 A 9.9947598,11.608166 0 0 0 23.978629,3.4813183 9.9543919,11.561282 0 0 1 21.15438,4.3807993 4.935333,5.7320207 0 0 0 23.317793,1.2256701 9.767504,11.344227 0 0 1 20.197515,2.6026747 4.9129065,5.705974 0 0 0 11.830921,7.8016054 13.94183,16.192394 0 0 1 1.7135636,1.8473192 4.9173919,5.7111832 0 0 0 3.2355779,9.4564419 4.9682252,5.7702226 0 0 1 1.0138557,8.7479704 v 0.07814 A 4.9158967,5.7094468 0 0 0 4.9489653,14.414006 4.788813,5.5618486 0 0 1 3.6557017,14.613698 4.8291808,5.6087328 0 0 1 2.7377088,14.51472 4.9084212,5.7007646 0 0 0 7.3231879,18.468616 9.8497347,11.439731 0 0 1 1.22317,20.911801 9.4490472,10.974363 0 0 1 0.0569902,20.833661 13.970237,16.225387 0 0 0 7.5713749,23.37756 Z"
     id="path1"
     style="fill:url(#linearGradient4);fill-opacity:1;stroke-width:1.61127" />
  <text
     xml:space="preserve"
     style="font-style:normal;font-variant:normal;font-weight:bold;font-stretch:normal;font-size:10.6964px;line-height:1.25;font-family:Hack;-inkscape-font-specification:'Hack Bold';mix-blend-mode:normal;fill:url(#linearGradient6);fill-opacity:1;stroke:none;stroke-width:2.6741"
     x="2.2463455"
     y="17.066755"
     id="text4"
     transform="scale(1.007081,0.99296878)"><tspan
       sodipodi:role="line"
       id="tspan4"
       x="2.2463455"
       y="17.066755"
       style="font-style:normal;font-variant:normal;font-weight:bold;font-stretch:normal;font-size:10.6964px;font-family:Hack;-inkscape-font-specification:'Hack Bold';fill:url(#linearGradient6);fill-opacity:1;stroke-width:2.6741">PWA</tspan></text>
  <text
     xml:space="preserve"
     style="font-style:normal;font-variant:normal;font-weight:bold;font-stretch:normal;font-size:4.83967px;line-height:1.25;font-family:Hack;-inkscape-font-specification:'Hack Bold';mix-blend-mode:normal;fill:url(#linearGradient8);fill-opacity:1;stroke:none;stroke-width:1.20992;filter:url(#filter8)"
     x="2.9421561"
     y="11.793479"
     id="text6"
     transform="matrix(2.225805,0,0,2.1946148,-4.2864144,-8.9353892)"><tspan
       sodipodi:role="line"
       id="tspan6"
       x="2.9421561"
       y="11.793479"
       style="font-style:normal;font-variant:normal;font-weight:bold;font-stretch:normal;font-size:4.83967px;font-family:Hack;-inkscape-font-specification:'Hack Bold';fill:url(#linearGradient8);fill-opacity:1;stroke-width:1.20992">PWA</tspan></text>
</svg>
